<svg width="899" height="138" viewBox="0 0 899 138" fill="none" xmlns="http://www.w3.org/2000/svg">
<path d="M71.3108 1.02423H124.246C124.246 6.38158 124.246 11.7389 124.246 17.0963C124.246 22.4536 124.246 27.8109 124.246 33.1683C124.246 38.5256 124.246 43.9255 124.246 49.3679C124.246 57.1913 124.246 65.0572 124.246 72.9657C124.246 80.8742 124.246 88.7826 124.246 96.6911H71.3108C71.3108 91.5038 71.3108 86.3165 71.3108 81.1293C71.3108 75.942 71.3108 70.7547 71.3108 65.5675C71.3108 65.4824 71.2683 65.4399 71.1832 65.4399C71.1832 65.3549 71.1407 65.3123 71.0557 65.3123H53.5805C53.4955 65.3123 53.453 65.3549 53.453 65.4399C53.453 65.4399 53.453 65.4824 53.453 65.5675C53.453 70.7547 53.453 75.942 53.453 81.1293C53.453 86.3165 53.453 91.5038 53.453 96.6911H0.517334C0.517334 91.5888 0.517334 86.4866 0.517334 81.3844C0.517334 76.2821 0.517334 71.1799 0.517334 66.0777C0.517334 60.9754 0.517334 55.8732 0.517334 50.771C0.517334 45.6688 0.517334 40.5665 0.517334 35.4643C0.517334 30.3621 0.517334 25.2598 0.517334 20.1576C0.517334 16.9262 0.517334 13.7373 0.517334 10.5909C0.517334 7.3595 0.517334 4.17061 0.517334 1.02423H53.453C53.453 5.10602 53.453 9.23032 53.453 13.3971C53.453 17.564 53.453 21.7308 53.453 25.8976C53.453 29.9794 53.453 34.1037 53.453 38.2705C53.453 38.3556 53.453 38.4406 53.453 38.5256C53.453 38.5256 53.4955 38.5256 53.5805 38.5256H71.0557C71.1407 38.5256 71.1832 38.5256 71.1832 38.5256C71.2683 38.4406 71.3108 38.3556 71.3108 38.2705C71.3108 32.0628 71.3108 25.8551 71.3108 19.6474C71.3108 13.4397 71.3108 7.23195 71.3108 1.02423Z" fill="#E96709"/>
<path d="M251.309 1.19081C252.839 6.46312 254.327 11.7779 255.773 17.1353C257.304 22.4076 258.792 27.7224 260.238 33.0798C261.768 38.3521 263.299 43.6669 264.83 49.0242C266.36 54.2965 267.848 59.6114 269.294 64.9687C270.825 70.241 272.313 75.5558 273.758 80.9132C275.289 86.1855 276.82 91.5003 278.35 96.8577H221.461L219.292 84.3572C218.952 84.3572 218.654 84.3572 218.399 84.3572C218.144 84.3572 217.847 84.3572 217.506 84.3572H203.475C203.22 84.3572 202.965 84.3572 202.71 84.3572C202.455 84.3572 202.2 84.3572 201.945 84.3572L199.776 96.8577H145.31C146.84 91.5003 148.329 86.1855 149.774 80.9132C151.305 75.5558 152.793 70.241 154.239 64.9687C155.769 59.6114 157.257 54.2965 158.703 49.0242C160.234 43.6669 161.722 38.3521 163.168 33.0798C164.698 27.7224 166.186 22.4076 167.632 17.1353C169.163 11.7779 170.651 6.46312 172.096 1.19081H251.309ZM203.475 75.3007C203.475 75.3858 203.475 75.4283 203.475 75.4283C203.475 75.4283 203.518 75.4283 203.603 75.4283H217.634C217.719 75.4283 217.761 75.4283 217.761 75.4283C217.761 75.3433 217.761 75.3007 217.761 75.3007C217.761 75.3007 217.591 74.2803 217.251 72.2394C216.911 70.1135 216.443 67.4773 215.848 64.3309C215.338 61.0995 214.785 57.698 214.19 54.1265C213.595 50.4699 213.042 47.0259 212.532 43.7945C212.021 40.563 211.554 37.9269 211.129 35.886C210.788 33.8451 210.618 32.8246 210.618 32.8246C210.618 32.8246 210.576 32.8246 210.491 32.8246C210.491 32.8246 210.321 33.8451 209.981 35.886C209.64 37.9269 209.173 40.563 208.577 43.7945C208.067 47.0259 207.514 50.4699 206.919 54.1265C206.324 57.698 205.771 61.0995 205.261 64.3309C204.751 67.4773 204.326 70.1135 203.985 72.2394C203.645 74.2803 203.475 75.3007 203.475 75.3007Z" fill="#E96709"/>
<path d="M355.321 59.1011C355.321 59.1862 355.321 59.2712 355.321 59.3563C355.406 59.3563 355.491 59.3563 355.576 59.3563H405.323V96.8577H302.386C302.386 91.5854 302.386 86.3131 302.386 81.0407C302.386 75.7684 302.386 70.4961 302.386 65.2238C302.386 59.8665 302.386 54.5517 302.386 49.2793C302.386 44.007 302.386 38.7347 302.386 33.4624C302.386 28.1051 302.386 22.7477 302.386 17.3904C302.386 11.948 302.386 6.54815 302.386 1.19081H355.321C355.321 6.03793 355.321 10.8851 355.321 15.7322C355.321 20.4943 355.321 25.2989 355.321 30.146C355.321 34.9931 355.321 39.8402 355.321 44.6873C355.321 49.4494 355.321 54.254 355.321 59.1011Z" fill="#E96709"/>
<path d="M483.897 59.1011C483.897 59.1862 483.897 59.2712 483.897 59.3563C483.982 59.3563 484.067 59.3563 484.152 59.3563H533.899V96.8577H430.961C430.961 91.5854 430.961 86.3131 430.961 81.0407C430.961 75.7684 430.961 70.4961 430.961 65.2238C430.961 59.8665 430.961 54.5517 430.961 49.2793C430.961 44.007 430.961 38.7347 430.961 33.4624C430.961 28.1051 430.961 22.7477 430.961 17.3904C430.961 11.948 430.961 6.54815 430.961 1.19081H483.897C483.897 6.03793 483.897 10.8851 483.897 15.7322C483.897 20.4943 483.897 25.2989 483.897 30.146C483.897 34.9931 483.897 39.8402 483.897 44.6873C483.897 49.4494 483.897 54.254 483.897 59.1011Z" fill="#E96709"/>
<path d="M666.446 33.3349H610.96C610.875 33.3349 610.832 33.3349 610.832 33.3349V40.3504C610.832 40.4355 610.832 40.5205 610.832 40.6056C610.917 40.6056 610.96 40.6056 610.96 40.6056H664.533V58.5909H610.96C610.96 58.5909 610.917 58.5909 610.832 58.5909C610.832 58.5909 610.832 58.6334 610.832 58.7185C610.832 58.7185 610.832 58.761 610.832 58.846V65.9892C610.917 65.9892 610.96 65.9892 610.96 65.9892H667.212V96.8577H559.172C559.172 91.8405 559.172 86.8233 559.172 81.8061C559.172 76.7038 559.172 71.6441 559.172 66.6269C559.172 61.6097 559.172 56.5926 559.172 51.5754C559.172 46.4731 559.172 41.4134 559.172 36.3962C559.172 31.294 559.172 26.2343 559.172 21.2171C559.172 17.9006 559.172 14.5842 559.172 11.2677C559.172 7.86623 559.172 4.50726 559.172 1.19081H666.446V33.3349Z" fill="#E96709"/>
<path d="M771.432 1.19081H829.343C824.666 9.69453 819.989 18.1983 815.312 26.702C810.635 35.2057 805.915 43.7094 801.153 52.2131C796.476 60.7169 791.799 69.2206 787.122 77.7243V96.8577H734.186V77.5967C731.21 72.4945 728.233 67.3923 725.257 62.29C722.366 57.1878 719.432 52.0856 716.456 46.9833C713.565 41.8811 710.631 36.8214 707.654 31.8042C704.678 26.702 701.702 21.5997 698.726 16.4975C695.834 11.3953 692.901 6.29304 689.924 1.19081H751.151C752.256 5.2726 753.319 9.35438 754.34 13.4362C755.445 17.518 756.551 21.5997 757.656 25.6815C758.762 29.7633 759.825 33.8451 760.845 37.9269C760.845 37.9269 760.845 37.9694 760.845 38.0544C760.93 38.0544 760.973 38.0544 760.973 38.0544C761.058 37.9694 761.1 37.9269 761.1 37.9269C761.951 34.8655 762.801 31.8042 763.651 28.7429C764.502 25.6815 765.352 22.6202 766.203 19.5588C767.138 16.4975 768.031 13.4362 768.881 10.3748C769.732 7.31349 770.582 4.25215 771.432 1.19081Z" fill="#E96709"/>
<path d="M874.085 0.590942C877.321 0.590942 880.386 1.15169 883.275 2.27649L883.821 2.48645C886.531 3.56325 888.932 5.09754 891.02 7.08997L891.432 7.48645C893.465 9.49299 895.065 11.8796 896.233 14.6417H896.232C897.524 17.5965 898.166 20.9102 898.166 24.5753C898.166 28.241 897.523 31.5753 896.232 34.5714L896.233 34.5724C894.988 37.5181 893.251 40.0579 891.023 42.1857C888.797 44.3107 886.215 45.9353 883.281 47.0616L883.282 47.0626C880.391 48.1894 877.324 48.7521 874.085 48.7521C870.846 48.752 867.78 48.1894 864.889 47.0626C861.998 45.936 859.439 44.31 857.214 42.1857C854.987 40.0591 853.229 37.5216 851.941 34.5782L851.94 34.5763C850.647 31.5791 850.005 28.2426 850.005 24.5753C850.005 20.9083 850.647 17.5928 851.941 14.6368C853.229 11.6927 854.988 9.1751 857.217 7.08997C859.441 4.96725 861.999 3.36309 864.889 2.27942L865.433 2.07532C868.164 1.0851 871.049 0.590972 874.085 0.590942ZM874.085 4.37122C870.496 4.37126 867.192 5.22364 864.165 6.92688L864.163 6.92786C861.182 8.58769 858.797 10.931 857.004 13.9669L857.002 13.9689C855.219 16.9478 854.319 20.4778 854.319 24.5753C854.319 27.6267 854.833 30.3946 855.855 32.8839C856.88 35.3807 858.309 37.5395 860.14 39.3654H860.139C861.973 41.1514 864.083 42.5423 866.473 43.5402H866.472C868.857 44.494 871.394 44.9718 874.085 44.9718C876.776 44.9718 879.312 44.4937 881.698 43.5402C884.087 42.5422 886.176 41.1506 887.965 39.3654C889.796 37.5394 891.225 35.3807 892.25 32.8839L892.253 32.8771C893.317 30.3895 893.853 27.6242 893.853 24.5753C893.853 21.5263 893.317 18.7835 892.254 16.34L892.25 16.3312C891.29 13.9911 889.975 11.9673 888.307 10.255L887.965 9.91321C886.177 8.12943 884.091 6.76011 881.704 5.80481C879.317 4.84955 876.779 4.37122 874.085 4.37122ZM874.87 10.6661C876.976 10.6661 878.799 11.0585 880.32 11.8663C881.25 12.3607 882.12 12.9333 882.927 13.5841C883.94 14.4003 883.938 15.8579 883.121 16.7794C882.229 17.7856 880.735 17.8079 879.704 17.0665C879.221 16.7191 878.741 16.4244 878.264 16.1818L878.256 16.1779C877.372 15.7082 876.336 15.466 875.133 15.4659C872.539 15.4659 870.508 16.3167 868.991 17.9943C867.465 19.6823 866.688 21.8627 866.688 24.5753C866.688 27.6461 867.432 30.0168 868.868 31.7394L869.151 32.0509C870.593 33.5602 872.485 34.3223 874.87 34.3224C876.381 34.3224 877.656 34.0375 878.711 33.4855C879.31 33.1614 879.898 32.8024 880.475 32.4103C881.554 31.6769 883.077 31.8423 883.875 32.9396C884.601 33.9374 884.442 35.3669 883.398 36.1017C882.44 36.7755 881.434 37.3831 880.38 37.9249L880.376 37.9269C878.771 38.7314 876.842 39.1232 874.609 39.1232C872.094 39.1231 869.793 38.554 867.714 37.4093L867.707 37.4054C865.627 36.2155 863.977 34.5395 862.76 32.3878L862.758 32.3849C861.536 30.1791 860.934 27.5699 860.934 24.5753C860.934 21.7409 861.584 19.2729 862.903 17.1906C864.209 15.085 865.926 13.4766 868.051 12.3751C870.167 11.2359 872.442 10.6662 874.87 10.6661Z" fill="#E96709" stroke="#E96709" stroke-width="0.910694"/>
<path d="M2.13126 132.716C2.13126 131.653 2.13126 130.622 2.13126 129.622C2.13126 128.623 2.13126 127.514 2.13126 126.295V119.654C2.13126 118.407 2.13126 117.275 2.13126 116.257C2.13126 115.24 2.13126 114.19 2.13126 113.109H14.8638V116.312C14.0021 116.312 13.0717 116.312 12.0726 116.312C11.0825 116.312 9.91379 116.312 8.56629 116.312H3.83627L5.89878 113.7C5.89878 114.781 5.89878 115.836 5.89878 116.862C5.89878 117.88 5.89878 119.012 5.89878 120.259V125.69C5.89878 126.909 5.89878 128.018 5.89878 129.017C5.89878 130.017 5.89878 131.052 5.89878 132.125L4.08377 129.512H8.85504C9.98254 129.512 11.0505 129.512 12.0588 129.512C13.0671 129.512 14.0342 129.512 14.9601 129.512V132.716H2.13126ZM5.03252 124.329V121.29H8.69004C9.91838 121.29 10.9725 121.29 11.8526 121.29C12.7326 121.29 13.5805 121.29 14.3963 121.29V124.329C13.5346 124.329 12.6638 124.329 11.7838 124.329C10.9038 124.329 9.86796 124.329 8.67629 124.329H5.03252ZM38.2995 132.716C37.9787 131.735 37.6349 130.69 37.2682 129.581C36.9107 128.472 36.5762 127.445 36.2645 126.501L34.257 120.355C34.0278 119.658 33.7757 118.897 33.5007 118.072C33.2349 117.238 32.9645 116.399 32.6895 115.556C32.4145 114.704 32.1486 113.888 31.892 113.109H36.1545C36.5395 114.401 36.9474 115.785 37.3782 117.261C37.8091 118.728 38.2078 120.103 38.5745 121.386L40.7333 128.797H41.0358L43.2633 121.345C43.6574 120.034 44.0654 118.668 44.487 117.247C44.9179 115.826 45.3304 114.447 45.7245 113.109H49.8771C49.6204 113.897 49.3546 114.713 49.0795 115.556C48.8045 116.399 48.5341 117.229 48.2683 118.045C48.0025 118.851 47.7504 119.617 47.512 120.341L45.4908 126.515C45.1791 127.477 44.8445 128.504 44.487 129.595C44.1387 130.686 43.7995 131.726 43.4695 132.716H38.2995ZM67.5225 132.716C67.5225 131.653 67.5225 130.622 67.5225 129.622C67.5225 128.623 67.5225 127.514 67.5225 126.295V119.654C67.5225 118.407 67.5225 117.275 67.5225 116.257C67.5225 115.24 67.5225 114.19 67.5225 113.109H80.255V116.312C79.3933 116.312 78.4629 116.312 77.4638 116.312C76.4738 116.312 75.305 116.312 73.9575 116.312H69.2275L71.29 113.7C71.29 114.781 71.29 115.836 71.29 116.862C71.29 117.88 71.29 119.012 71.29 120.259V125.69C71.29 126.909 71.29 128.018 71.29 129.017C71.29 130.017 71.29 131.052 71.29 132.125L69.475 129.512H74.2462C75.3737 129.512 76.4417 129.512 77.45 129.512C78.4583 129.512 79.4254 129.512 80.3513 129.512V132.716H67.5225ZM70.4237 124.329V121.29H74.0812C75.3096 121.29 76.3638 121.29 77.2438 121.29C78.1238 121.29 78.9717 121.29 79.7875 121.29V124.329C78.9258 124.329 78.055 124.329 77.175 124.329C76.295 124.329 75.2592 124.329 74.0675 124.329H70.4237ZM98.7544 132.716C98.7544 131.653 98.7544 130.622 98.7544 129.622C98.7544 128.623 98.7544 127.514 98.7544 126.295V119.667C98.7544 118.411 98.7544 117.275 98.7544 116.257C98.7544 115.24 98.7544 114.19 98.7544 113.109H102.137C103.145 114.548 104.099 115.918 104.997 117.22C105.904 118.521 106.807 119.819 107.706 121.111L111.239 126.185H111.528V119.667C111.528 118.411 111.528 117.275 111.528 116.257C111.528 115.24 111.528 114.19 111.528 113.109H115.158C115.158 114.19 115.158 115.24 115.158 116.257C115.158 117.275 115.158 118.411 115.158 119.667V126.295C115.158 127.514 115.158 128.623 115.158 129.622C115.158 130.622 115.158 131.653 115.158 132.716H111.817C110.992 131.524 110.126 130.282 109.218 128.99C108.311 127.688 107.316 126.263 106.234 124.714L102.659 119.585H102.371V126.295C102.371 127.514 102.371 128.623 102.371 129.622C102.371 130.622 102.371 131.653 102.371 132.716H98.7544ZM139.096 132.716C139.096 131.653 139.096 130.622 139.096 129.622C139.096 128.623 139.096 127.514 139.096 126.295V120.259C139.096 119.003 139.096 117.866 139.096 116.849C139.096 115.831 139.096 114.781 139.096 113.7L140.567 116.477H138.051C136.997 116.477 136.057 116.477 135.232 116.477C134.416 116.477 133.642 116.477 132.908 116.477V113.109H149.106V116.477C148.373 116.477 147.598 116.477 146.782 116.477C145.966 116.477 145.027 116.477 143.963 116.477H141.447L142.932 113.7C142.932 114.781 142.932 115.831 142.932 116.849C142.932 117.866 142.932 119.003 142.932 120.259V126.295C142.932 127.514 142.932 128.623 142.932 129.622C142.932 130.622 142.932 131.653 142.932 132.716H139.096ZM175.331 133.06C173.599 133.06 172.091 132.789 170.807 132.249C169.533 131.708 168.479 130.965 167.645 130.021C166.82 129.077 166.201 127.995 165.789 126.776C165.385 125.557 165.184 124.269 165.184 122.912C165.184 121.015 165.564 119.296 166.325 117.756C167.086 116.207 168.209 114.983 169.694 114.085C171.188 113.177 173.03 112.724 175.221 112.724C176.889 112.724 178.352 112.985 179.607 113.507C180.863 114.03 181.913 114.759 182.756 115.694C183.599 116.629 184.232 117.71 184.654 118.939C185.075 120.167 185.286 121.487 185.286 122.899C185.286 124.842 184.901 126.579 184.131 128.11C183.361 129.641 182.234 130.851 180.749 131.74C179.264 132.62 177.458 133.06 175.331 133.06ZM175.262 129.856C176.289 129.856 177.178 129.673 177.93 129.306C178.682 128.93 179.305 128.417 179.8 127.766C180.304 127.106 180.675 126.359 180.914 125.525C181.161 124.691 181.285 123.815 181.285 122.899C181.285 121.918 181.152 121.006 180.886 120.162C180.62 119.319 180.231 118.581 179.717 117.949C179.213 117.307 178.585 116.812 177.834 116.464C177.091 116.106 176.234 115.927 175.262 115.927C174.263 115.927 173.383 116.111 172.622 116.477C171.861 116.844 171.224 117.353 170.711 118.004C170.207 118.654 169.826 119.401 169.57 120.245C169.313 121.079 169.185 121.964 169.185 122.899C169.185 123.834 169.309 124.718 169.556 125.552C169.804 126.387 170.179 127.129 170.684 127.78C171.188 128.431 171.82 128.939 172.581 129.306C173.342 129.673 174.236 129.856 175.262 129.856ZM209.484 133.06C208.668 133.06 207.834 132.987 206.982 132.84C206.138 132.702 205.35 132.528 204.617 132.317C203.893 132.097 203.306 131.877 202.857 131.657L203.146 128.165C203.778 128.522 204.433 128.829 205.112 129.086C205.799 129.343 206.487 129.54 207.174 129.677C207.871 129.815 208.549 129.884 209.209 129.884C209.897 129.884 210.506 129.797 211.038 129.622C211.57 129.448 211.982 129.178 212.276 128.811C212.578 128.444 212.729 127.977 212.729 127.409C212.729 126.831 212.551 126.354 212.193 125.979C211.845 125.603 211.336 125.277 210.667 125.002C210.007 124.718 209.214 124.439 208.288 124.164C207.078 123.797 206.042 123.384 205.181 122.926C204.328 122.459 203.673 121.867 203.214 121.152C202.765 120.437 202.541 119.516 202.541 118.389C202.541 117.289 202.788 116.312 203.283 115.46C203.787 114.598 204.539 113.929 205.538 113.452C206.537 112.966 207.788 112.724 209.292 112.724C209.888 112.724 210.488 112.765 211.093 112.847C211.698 112.921 212.28 113.026 212.839 113.164C213.398 113.292 213.912 113.443 214.379 113.617C214.856 113.782 215.269 113.956 215.617 114.14L215.301 117.632C214.732 117.266 214.132 116.954 213.499 116.697C212.876 116.441 212.257 116.248 211.643 116.12C211.038 115.991 210.479 115.927 209.966 115.927C209.351 115.927 208.788 116.014 208.274 116.189C207.77 116.354 207.362 116.61 207.051 116.959C206.748 117.298 206.597 117.729 206.597 118.251C206.597 118.755 206.734 119.177 207.009 119.516C207.284 119.855 207.715 120.158 208.302 120.424C208.888 120.689 209.64 120.964 210.557 121.249C212.124 121.725 213.362 122.22 214.269 122.734C215.177 123.238 215.819 123.843 216.194 124.549C216.579 125.254 216.772 126.139 216.772 127.202C216.772 128.357 216.515 129.375 216.002 130.255C215.498 131.135 214.709 131.822 213.637 132.317C212.564 132.812 211.18 133.06 209.484 133.06ZM268.778 132.716C268.191 132.093 267.595 131.469 266.99 130.846C266.394 130.214 265.798 129.59 265.203 128.976L259.07 122.569C258.273 121.744 257.645 120.928 257.186 120.121C256.728 119.314 256.499 118.434 256.499 117.481C256.499 116.464 256.742 115.602 257.228 114.896C257.713 114.181 258.364 113.64 259.18 113.274C260.005 112.907 260.917 112.724 261.916 112.724C262.943 112.724 263.869 112.898 264.694 113.246C265.528 113.594 266.188 114.103 266.674 114.772C267.16 115.441 267.403 116.257 267.403 117.22C267.403 117.99 267.256 118.659 266.963 119.227C266.678 119.796 266.303 120.286 265.835 120.699C265.368 121.102 264.863 121.45 264.323 121.744C263.782 122.037 263.259 122.289 262.755 122.5L261.311 120.506C261.925 120.259 262.448 119.988 262.879 119.695C263.319 119.392 263.653 119.049 263.883 118.664C264.121 118.279 264.24 117.829 264.24 117.316C264.24 116.729 264.038 116.239 263.635 115.845C263.232 115.441 262.718 115.24 262.095 115.24C261.481 115.24 260.977 115.441 260.583 115.845C260.188 116.248 259.991 116.78 259.991 117.44C259.991 117.999 260.143 118.549 260.445 119.09C260.757 119.621 261.252 120.245 261.93 120.96L267.843 127.175C268.713 128.092 269.589 129.013 270.469 129.939C271.358 130.864 272.238 131.79 273.109 132.716H268.778ZM259.895 133.032C258.529 133.032 257.393 132.789 256.485 132.304C255.578 131.818 254.895 131.162 254.436 130.337C253.978 129.512 253.749 128.591 253.749 127.574C253.749 126.464 253.978 125.507 254.436 124.7C254.904 123.884 255.509 123.197 256.251 122.637C256.994 122.069 257.782 121.601 258.616 121.235L260.115 123.339C259.519 123.614 258.997 123.939 258.548 124.315C258.108 124.691 257.764 125.117 257.516 125.594C257.278 126.061 257.159 126.584 257.159 127.161C257.159 127.739 257.283 128.252 257.53 128.701C257.778 129.15 258.144 129.508 258.63 129.774C259.125 130.03 259.725 130.159 260.431 130.159C260.89 130.159 261.348 130.062 261.806 129.87C262.265 129.677 262.709 129.393 263.14 129.017C263.58 128.642 264.006 128.179 264.419 127.629L266.261 129.554L266.358 130.076H265.973C265.441 130.69 264.877 131.217 264.281 131.657C263.685 132.097 263.03 132.437 262.315 132.675C261.6 132.913 260.793 133.032 259.895 133.032ZM268.296 127.904L266.261 125.882C266.793 125.057 267.306 124.251 267.801 123.462C268.305 122.674 268.814 121.876 269.328 121.07L272.229 122.954C271.578 123.779 270.927 124.599 270.276 125.415C269.625 126.231 268.965 127.06 268.296 127.904ZM309.871 132.716C310.009 131.68 310.142 130.649 310.27 129.622C310.398 128.587 310.536 127.468 310.683 126.267L311.494 119.722C311.65 118.531 311.792 117.412 311.92 116.367C312.048 115.313 312.181 114.227 312.319 113.109H316.21C316.696 114.319 317.159 115.483 317.599 116.601C318.039 117.71 318.479 118.815 318.919 119.915L321.518 126.446H321.779L324.309 119.929C324.749 118.819 325.18 117.719 325.601 116.629C326.032 115.529 326.481 114.355 326.949 113.109H330.799C330.936 114.218 331.069 115.299 331.198 116.354C331.335 117.399 331.477 118.526 331.624 119.736L332.449 126.309C332.605 127.5 332.747 128.605 332.875 129.622C333.004 130.631 333.132 131.662 333.26 132.716H329.603C329.419 131.222 329.245 129.801 329.08 128.454C328.915 127.106 328.759 125.846 328.613 124.672L327.994 119.612H327.733L325.766 125.057C325.29 126.387 324.808 127.707 324.323 129.017C323.846 130.328 323.401 131.561 322.989 132.716H320.418C320.143 131.974 319.836 131.176 319.496 130.324C319.166 129.462 318.827 128.587 318.479 127.697C318.131 126.799 317.787 125.924 317.448 125.071L315.33 119.612H315.069L314.464 124.645C314.317 125.827 314.161 127.097 313.996 128.454C313.831 129.801 313.662 131.222 313.488 132.716H309.871ZM350.308 132.716C350.665 131.662 351.041 130.553 351.435 129.389C351.83 128.224 352.201 127.12 352.549 126.075L354.832 119.351C355.244 118.132 355.615 117.036 355.945 116.065C356.285 115.084 356.619 114.099 356.949 113.109H361.927C362.266 114.135 362.6 115.134 362.93 116.106C363.26 117.078 363.627 118.159 364.03 119.351L366.285 126.089C366.652 127.17 367.028 128.284 367.413 129.43C367.798 130.576 368.165 131.671 368.513 132.716H364.539C364.209 131.644 363.87 130.539 363.522 129.402C363.173 128.266 362.843 127.193 362.532 126.185L359.548 116.422H359.245L356.234 126.075C355.904 127.129 355.56 128.234 355.203 129.389C354.855 130.534 354.511 131.644 354.172 132.716H350.308ZM354.667 128.344L355.052 125.429H364.209L364.525 128.344H354.667ZM386.126 132.716C386.126 131.653 386.126 130.622 386.126 129.622C386.126 128.623 386.126 127.514 386.126 126.295V119.654C386.126 118.407 386.126 117.275 386.126 116.257C386.126 115.24 386.126 114.19 386.126 113.109C386.695 113.109 387.364 113.109 388.134 113.109C388.904 113.109 389.729 113.109 390.609 113.109C391.498 113.109 392.41 113.109 393.345 113.109C394.903 113.109 396.219 113.287 397.291 113.645C398.364 113.993 399.171 114.571 399.711 115.377C400.261 116.184 400.536 117.275 400.536 118.65C400.536 119.759 400.316 120.767 399.876 121.675C399.446 122.582 398.74 123.307 397.759 123.847C396.787 124.379 395.495 124.649 393.881 124.659L395.298 123.119L398.116 127.037C398.556 127.642 399.019 128.289 399.505 128.976C400 129.664 400.481 130.333 400.949 130.984C401.426 131.634 401.843 132.212 402.2 132.716H397.8C397.259 131.928 396.737 131.172 396.233 130.447C395.738 129.714 395.252 129.004 394.775 128.316L391.448 123.462L393.758 125.387H389.206V122.404H392.644C393.506 122.404 394.225 122.303 394.803 122.101C395.389 121.89 395.829 121.546 396.123 121.07C396.416 120.584 396.563 119.929 396.563 119.104C396.563 118.462 396.462 117.949 396.26 117.564C396.068 117.179 395.806 116.885 395.476 116.684C395.146 116.482 394.784 116.349 394.39 116.285C394.005 116.221 393.616 116.189 393.221 116.189H387.185L389.894 113.7C389.894 114.836 389.894 115.914 389.894 116.931C389.894 117.939 389.894 119.049 389.894 120.259V126.295C389.894 127.514 389.894 128.623 389.894 129.622C389.894 130.622 389.894 131.653 389.894 132.716H386.126ZM431.325 132.716C430.628 131.818 429.973 130.974 429.359 130.186C428.754 129.398 428.158 128.628 427.571 127.876L424.601 124.067H423.308V121.015H424.56L427.186 117.88C427.8 117.137 428.41 116.399 429.015 115.666C429.629 114.933 430.335 114.08 431.132 113.109H435.615C434.716 114.144 433.836 115.162 432.975 116.161C432.122 117.16 431.261 118.164 430.39 119.172L427.117 122.981L427.049 121.29L430.692 125.951C431.251 126.666 431.852 127.436 432.494 128.261C433.144 129.086 433.777 129.888 434.391 130.667C435.005 131.447 435.541 132.129 436 132.716H431.325ZM419.802 132.716C419.802 131.653 419.802 130.622 419.802 129.622C419.802 128.623 419.802 127.514 419.802 126.295V119.667C419.802 118.411 419.802 117.275 419.802 116.257C419.802 115.24 419.802 114.19 419.802 113.109H423.652C423.652 114.19 423.652 115.24 423.652 116.257C423.652 117.275 423.652 118.411 423.652 119.667V126.295C423.652 127.514 423.652 128.623 423.652 129.622C423.652 130.622 423.652 131.653 423.652 132.716H419.802ZM453.612 132.716C453.612 131.653 453.612 130.622 453.612 129.622C453.612 128.623 453.612 127.514 453.612 126.295V119.654C453.612 118.407 453.612 117.275 453.612 116.257C453.612 115.24 453.612 114.19 453.612 113.109H466.345V116.312C465.483 116.312 464.553 116.312 463.554 116.312C462.564 116.312 461.395 116.312 460.047 116.312H455.317L457.38 113.7C457.38 114.781 457.38 115.836 457.38 116.862C457.38 117.88 457.38 119.012 457.38 120.259V125.69C457.38 126.909 457.38 128.018 457.38 129.017C457.38 130.017 457.38 131.052 457.38 132.125L455.565 129.512H460.336C461.464 129.512 462.532 129.512 463.54 129.512C464.548 129.512 465.515 129.512 466.441 129.512V132.716H453.612ZM456.514 124.329V121.29H460.171C461.399 121.29 462.454 121.29 463.334 121.29C464.214 121.29 465.062 121.29 465.877 121.29V124.329C465.016 124.329 464.145 124.329 463.265 124.329C462.385 124.329 461.349 124.329 460.157 124.329H456.514ZM489.657 132.716C489.657 131.653 489.657 130.622 489.657 129.622C489.657 128.623 489.657 127.514 489.657 126.295V120.259C489.657 119.003 489.657 117.866 489.657 116.849C489.657 115.831 489.657 114.781 489.657 113.7L491.128 116.477H488.612C487.558 116.477 486.618 116.477 485.793 116.477C484.977 116.477 484.203 116.477 483.469 116.477V113.109H499.667V116.477C498.933 116.477 498.159 116.477 497.343 116.477C496.527 116.477 495.588 116.477 494.524 116.477H492.008L493.493 113.7C493.493 114.781 493.493 115.831 493.493 116.849C493.493 117.866 493.493 119.003 493.493 120.259V126.295C493.493 127.514 493.493 128.623 493.493 129.622C493.493 130.622 493.493 131.653 493.493 132.716H489.657ZM517.461 132.716C517.461 131.653 517.461 130.622 517.461 129.622C517.461 128.623 517.461 127.514 517.461 126.295V119.667C517.461 118.411 517.461 117.275 517.461 116.257C517.461 115.24 517.461 114.19 517.461 113.109H521.393C521.393 114.19 521.393 115.24 521.393 116.257C521.393 117.275 521.393 118.411 521.393 119.667V126.295C521.393 127.514 521.393 128.623 521.393 129.622C521.393 130.622 521.393 131.653 521.393 132.716H517.461ZM540.567 132.716C540.567 131.653 540.567 130.622 540.567 129.622C540.567 128.623 540.567 127.514 540.567 126.295V119.667C540.567 118.411 540.567 117.275 540.567 116.257C540.567 115.24 540.567 114.19 540.567 113.109H543.95C544.958 114.548 545.912 115.918 546.81 117.22C547.718 118.521 548.62 119.819 549.519 121.111L553.053 126.185H553.341V119.667C553.341 118.411 553.341 117.275 553.341 116.257C553.341 115.24 553.341 114.19 553.341 113.109H556.971C556.971 114.19 556.971 115.24 556.971 116.257C556.971 117.275 556.971 118.411 556.971 119.667V126.295C556.971 127.514 556.971 128.623 556.971 129.622C556.971 130.622 556.971 131.653 556.971 132.716H553.63C552.805 131.524 551.939 130.282 551.031 128.99C550.124 127.688 549.129 126.263 548.048 124.714L544.472 119.585H544.184V126.295C544.184 127.514 544.184 128.623 544.184 129.622C544.184 130.622 544.184 131.653 544.184 132.716H540.567ZM585.653 133.046C583.957 133.046 582.453 132.794 581.143 132.29C579.841 131.786 578.741 131.08 577.843 130.172C576.953 129.265 576.275 128.192 575.808 126.955C575.349 125.717 575.12 124.365 575.12 122.899C575.12 120.909 575.528 119.149 576.344 117.619C577.16 116.088 578.324 114.891 579.836 114.03C581.349 113.159 583.155 112.724 585.254 112.724C585.941 112.724 586.611 112.769 587.261 112.861C587.912 112.944 588.526 113.063 589.104 113.219C589.691 113.365 590.231 113.53 590.726 113.714C591.231 113.888 591.666 114.071 592.033 114.264L591.73 117.852C590.969 117.421 590.227 117.073 589.503 116.807C588.788 116.532 588.096 116.335 587.426 116.216C586.766 116.088 586.138 116.024 585.543 116.024C584.617 116.024 583.76 116.175 582.971 116.477C582.192 116.771 581.509 117.215 580.923 117.811C580.345 118.398 579.896 119.122 579.575 119.984C579.254 120.836 579.094 121.812 579.094 122.912C579.094 123.884 579.231 124.796 579.506 125.649C579.781 126.492 580.198 127.234 580.758 127.876C581.317 128.518 582.032 129.022 582.903 129.389C583.773 129.746 584.796 129.925 585.969 129.925C586.519 129.925 587.051 129.902 587.564 129.856C588.077 129.801 588.577 129.714 589.063 129.595C589.548 129.476 590.025 129.329 590.493 129.155C590.96 128.972 591.428 128.752 591.895 128.495L592.349 131.96C592.037 132.097 591.638 132.23 591.153 132.359C590.676 132.487 590.14 132.606 589.544 132.716C588.948 132.817 588.32 132.895 587.66 132.95C587 133.014 586.331 133.046 585.653 133.046ZM588.733 132.029C588.733 131.029 588.733 130.154 588.733 129.402C588.733 128.642 588.733 127.881 588.733 127.12C588.733 126.231 588.733 125.447 588.733 124.769C588.733 124.081 588.733 123.384 588.733 122.679H592.349C592.349 123.384 592.349 124.081 592.349 124.769C592.349 125.447 592.349 126.231 592.349 127.12C592.349 127.881 592.349 128.637 592.349 129.389C592.349 130.131 592.349 130.988 592.349 131.96L588.733 132.029ZM631.148 132.716C631.148 131.653 631.148 130.622 631.148 129.622C631.148 128.623 631.148 127.514 631.148 126.295V119.667C631.148 118.411 631.148 117.275 631.148 116.257C631.148 115.24 631.148 114.19 631.148 113.109C631.937 113.109 632.739 113.109 633.554 113.109C634.379 113.109 635.214 113.109 636.057 113.109C636.909 113.109 637.771 113.109 638.642 113.109C640.145 113.109 641.479 113.324 642.643 113.755C643.817 114.186 644.802 114.823 645.599 115.666C646.406 116.5 647.016 117.518 647.428 118.719C647.85 119.919 648.061 121.294 648.061 122.844C648.061 124.228 647.877 125.52 647.511 126.721C647.144 127.913 646.557 128.958 645.751 129.856C644.944 130.754 643.881 131.456 642.561 131.96C641.241 132.464 639.632 132.716 637.734 132.716C636.882 132.716 636.089 132.716 635.356 132.716C634.622 132.716 633.912 132.716 633.224 132.716C632.546 132.716 631.854 132.716 631.148 132.716ZM635.012 129.609H637.734C639.293 129.609 640.535 129.315 641.461 128.729C642.387 128.133 643.051 127.322 643.454 126.295C643.858 125.259 644.059 124.09 644.059 122.789C644.059 121.799 643.94 120.9 643.702 120.094C643.464 119.287 643.097 118.595 642.602 118.017C642.116 117.431 641.488 116.986 640.718 116.684C639.948 116.372 639.036 116.216 637.982 116.216H635.012C635.012 116.885 635.012 117.559 635.012 118.237C635.012 118.916 635.012 119.681 635.012 120.534V125.401C635.012 126.217 635.012 126.959 635.012 127.629C635.012 128.298 635.012 128.958 635.012 129.609ZM666.262 132.716C666.262 131.653 666.262 130.622 666.262 129.622C666.262 128.623 666.262 127.514 666.262 126.295V119.667C666.262 118.411 666.262 117.275 666.262 116.257C666.262 115.24 666.262 114.19 666.262 113.109H670.195C670.195 114.19 670.195 115.24 670.195 116.257C670.195 117.275 670.195 118.411 670.195 119.667V126.295C670.195 127.514 670.195 128.623 670.195 129.622C670.195 130.622 670.195 131.653 670.195 132.716H666.262ZM698.925 133.046C697.229 133.046 695.726 132.794 694.415 132.29C693.113 131.786 692.013 131.08 691.115 130.172C690.226 129.265 689.548 128.192 689.08 126.955C688.622 125.717 688.393 124.365 688.393 122.899C688.393 120.909 688.801 119.149 689.616 117.619C690.432 116.088 691.596 114.891 693.109 114.03C694.621 113.159 696.427 112.724 698.526 112.724C699.214 112.724 699.883 112.769 700.534 112.861C701.185 112.944 701.799 113.063 702.376 113.219C702.963 113.365 703.504 113.53 703.999 113.714C704.503 113.888 704.939 114.071 705.305 114.264L705.003 117.852C704.242 117.421 703.499 117.073 702.775 116.807C702.06 116.532 701.368 116.335 700.699 116.216C700.039 116.088 699.411 116.024 698.815 116.024C697.889 116.024 697.032 116.175 696.244 116.477C695.465 116.771 694.782 117.215 694.195 117.811C693.618 118.398 693.168 119.122 692.848 119.984C692.527 120.836 692.366 121.812 692.366 122.912C692.366 123.884 692.504 124.796 692.779 125.649C693.054 126.492 693.471 127.234 694.03 127.876C694.589 128.518 695.304 129.022 696.175 129.389C697.046 129.746 698.068 129.925 699.241 129.925C699.791 129.925 700.323 129.902 700.836 129.856C701.35 129.801 701.849 129.714 702.335 129.595C702.821 129.476 703.298 129.329 703.765 129.155C704.233 128.972 704.7 128.752 705.168 128.495L705.621 131.96C705.31 132.097 704.911 132.23 704.425 132.359C703.949 132.487 703.412 132.606 702.816 132.716C702.221 132.817 701.593 132.895 700.933 132.95C700.273 133.014 699.603 133.046 698.925 133.046ZM702.005 132.029C702.005 131.029 702.005 130.154 702.005 129.402C702.005 128.642 702.005 127.881 702.005 127.12C702.005 126.231 702.005 125.447 702.005 124.769C702.005 124.081 702.005 123.384 702.005 122.679H705.621C705.621 123.384 705.621 124.081 705.621 124.769C705.621 125.447 705.621 126.231 705.621 127.12C705.621 127.881 705.621 128.637 705.621 129.389C705.621 130.131 705.621 130.988 705.621 131.96L702.005 132.029ZM724.376 132.716C724.376 131.653 724.376 130.622 724.376 129.622C724.376 128.623 724.376 127.514 724.376 126.295V119.667C724.376 118.411 724.376 117.275 724.376 116.257C724.376 115.24 724.376 114.19 724.376 113.109H728.308C728.308 114.19 728.308 115.24 728.308 116.257C728.308 117.275 728.308 118.411 728.308 119.667V126.295C728.308 127.514 728.308 128.623 728.308 129.622C728.308 130.622 728.308 131.653 728.308 132.716H724.376ZM752.295 132.716C752.295 131.653 752.295 130.622 752.295 129.622C752.295 128.623 752.295 127.514 752.295 126.295V120.259C752.295 119.003 752.295 117.866 752.295 116.849C752.295 115.831 752.295 114.781 752.295 113.7L753.766 116.477H751.25C750.196 116.477 749.256 116.477 748.431 116.477C747.615 116.477 746.841 116.477 746.107 116.477V113.109H762.305V116.477C761.571 116.477 760.797 116.477 759.981 116.477C759.165 116.477 758.226 116.477 757.162 116.477H754.646L756.131 113.7C756.131 114.781 756.131 115.831 756.131 116.849C756.131 117.866 756.131 119.003 756.131 120.259V126.295C756.131 127.514 756.131 128.623 756.131 129.622C756.131 130.622 756.131 131.653 756.131 132.716H752.295ZM776.222 132.716C776.58 131.662 776.956 130.553 777.35 129.389C777.744 128.224 778.115 127.12 778.464 126.075L780.746 119.351C781.159 118.132 781.53 117.036 781.86 116.065C782.199 115.084 782.534 114.099 782.864 113.109H787.841C788.18 114.135 788.515 115.134 788.845 116.106C789.175 117.078 789.542 118.159 789.945 119.351L792.2 126.089C792.567 127.17 792.943 128.284 793.328 129.43C793.713 130.576 794.079 131.671 794.428 132.716H790.454C790.124 131.644 789.785 130.539 789.436 129.402C789.088 128.266 788.758 127.193 788.446 126.185L785.462 116.422H785.16L782.149 126.075C781.819 127.129 781.475 128.234 781.117 129.389C780.769 130.534 780.425 131.644 780.086 132.716H776.222ZM780.581 128.344L780.966 125.429H790.124L790.44 128.344H780.581ZM812.041 132.716C812.041 131.653 812.041 130.622 812.041 129.622C812.041 128.623 812.041 127.514 812.041 126.295V119.667C812.041 118.411 812.041 117.275 812.041 116.257C812.041 115.24 812.041 114.19 812.041 113.109H815.905C815.905 114.19 815.905 115.24 815.905 116.257C815.905 117.275 815.905 118.411 815.905 119.667V125.69C815.905 126.909 815.905 128.018 815.905 129.017C815.905 130.007 815.905 131.039 815.905 132.111L814.543 129.347H818.297C819.278 129.347 820.14 129.347 820.882 129.347C821.634 129.347 822.331 129.347 822.972 129.347C823.614 129.347 824.269 129.347 824.938 129.347V132.716H812.041Z" fill="#E96709"/>
</svg>
